<?xml version="1.0" encoding="UTF-8" standalone="no"?>
<!-- Generator: Adobe Illustrator 18.0.0, SVG Export Plug-In . SVG Version: 6.00 Build 0)  -->

<svg
   xmlns:dc="http://purl.org/dc/elements/1.1/"
   xmlns:cc="http://creativecommons.org/ns#"
   xmlns:rdf="http://www.w3.org/1999/02/22-rdf-syntax-ns#"
   xmlns:svg="http://www.w3.org/2000/svg"
   xmlns="http://www.w3.org/2000/svg"
   xmlns:sodipodi="http://sodipodi.sourceforge.net/DTD/sodipodi-0.dtd"
   xmlns:inkscape="http://www.inkscape.org/namespaces/inkscape"
   version="1.1"
   id="Layer_1"
   x="0px"
   y="0px"
   width="4096"
   height="4096"
   viewBox="0 0 4095.9999 4096.0001"
   enable-background="new 0 0 178.3 35.3"
   xml:space="preserve"
   sodipodi:docname="zotac-logo.svg"
   inkscape:export-filename="G:\Users\suitedoalex\sites\zotac-logo-0.png"
   inkscape:export-xdpi="96"
   inkscape:export-ydpi="96"
   inkscape:version="0.92.2 (5c3e80d, 2017-08-06)"><metadata
     id="metadata23"><rdf:RDF><cc:Work
         rdf:about=""><dc:format>image/svg+xml</dc:format><dc:type
           rdf:resource="http://purl.org/dc/dcmitype/StillImage" /><dc:title></dc:title></cc:Work></rdf:RDF></metadata><defs
     id="defs21" /><sodipodi:namedview
     pagecolor="#ffffff"
     bordercolor="#666666"
     borderopacity="1"
     objecttolerance="10"
     gridtolerance="10"
     guidetolerance="10"
     inkscape:pageopacity="0"
     inkscape:pageshadow="2"
     inkscape:window-width="1600"
     inkscape:window-height="837"
     id="namedview19"
     showgrid="false"
     inkscape:zoom="0.029269489"
     inkscape:cx="-5095.7053"
     inkscape:cy="5563.1475"
     inkscape:window-x="-8"
     inkscape:window-y="-8"
     inkscape:window-maximized="1"
     inkscape:current-layer="g16" /><g
     id="g16"
     transform="matrix(21.549892,0,0,21.549892,125.74963,1683.8068)"><polyline
       points="103.5,3.4 74.8,3.4 70.5,10.7 82.3,10.7 82.3,31.1    90.6,31.1 90.6,10.7 99.2,10.7 103.5,3.4  "
       id="polyline2"
       style="clip-rule:evenodd;fill:#6d6e70;fill-rule:evenodd"
       transform="translate(4.9000002,1.1693794e-6)" /><polyline
       points="116.1,2 99.3,31.1 107.6,31.1 116.1,16.4 120.7,24.2 114,24.2 110.1,31.1 133,31.1 116.1,2  "
       id="polyline4"
       style="fill:#6d6e70"
       transform="translate(4.9000002,1.1693794e-6)" /><polyline
       points="8,3.4 30.7,3.4 17.2,24.4 32.1,24.4 28.3,31.1 3.6,31.1    17.3,10.1 4.1,10.1 8,3.4  "
       id="polyline6"
       style="clip-rule:evenodd;fill:#6d6e70;fill-rule:evenodd"
       transform="translate(4.9000002,1.1693794e-6)" /><path
       d="m 56.4,24.900001 c -3.7,0 -6.6,-3.4 -6.6,-7.5 0,-4.1 2.9,-7.4 6.6,-7.4 3.7,0 6.7,3.3 6.7,7.4 0,4.1 -3,7.5 -6.7,7.5 m 0,-21.9999998 c -8.3,0 -14.9,6.4 -14.9,14.3999998 0,8.1 6.7,14.5 14.9,14.5 8.3,0 14.9,-6.5 14.9,-14.5 C 71.4,9.3000012 64.7,2.9000012 56.4,2.9000012 Z"
       id="path8"
       inkscape:connector-curvature="0"
       style="clip-rule:evenodd;fill:#ffd300;fill-rule:evenodd" /><path
       d="m 154.6,24.400001 c -3.7,0 -6.1,-3.2 -6.1,-7.1 0,-3.9 2.7,-7 6.1,-7 h 10.6 l 4.2,-7.3999998 h -15.8 c -5.1,0 -9.5,3 -11.8,7.3999998 -1.1,2.1 -1.7,4.5 -1.7,7 0,3.4 1.1,6.5 2.9,9 2.5,3.3 6.3,5.5 10.6,5.5 h 12.1 l 4.2,-7.4 h -15.3"
       id="path10"
       inkscape:connector-curvature="0"
       style="fill:#6d6e70" /></g></svg>