<?xml version="1.0" encoding="UTF-8" standalone="no"?>
<!-- Generator: Adobe Illustrator 21.1.0, SVG Export Plug-In . SVG Version: 6.00 Build 0)  -->

<svg
   xmlns:dc="http://purl.org/dc/elements/1.1/"
   xmlns:cc="http://creativecommons.org/ns#"
   xmlns:rdf="http://www.w3.org/1999/02/22-rdf-syntax-ns#"
   xmlns:svg="http://www.w3.org/2000/svg"
   xmlns="http://www.w3.org/2000/svg"
   xmlns:sodipodi="http://sodipodi.sourceforge.net/DTD/sodipodi-0.dtd"
   xmlns:inkscape="http://www.inkscape.org/namespaces/inkscape"
   version="1.1"
   id="Calque_1"
   x="0px"
   y="0px"
   viewBox="0 0 700 700.00001"
   xml:space="preserve"
   sodipodi:docname="dc-logo.svg"
   width="700"
   height="700"
   inkscape:export-filename="G:\Users\suitedoalex\sites\dc-logo-4.png"
   inkscape:export-xdpi="81.597961"
   inkscape:export-ydpi="81.597961"
   inkscape:version="0.92.4 (5da689c313, 2019-01-14)"><metadata
   id="metadata13"><rdf:RDF><cc:Work
       rdf:about=""><dc:format>image/svg+xml</dc:format><dc:type
         rdf:resource="http://purl.org/dc/dcmitype/StillImage" /><dc:title></dc:title></cc:Work></rdf:RDF></metadata><defs
   id="defs11" /><sodipodi:namedview
   pagecolor="#ffffff"
   bordercolor="#666666"
   borderopacity="1"
   objecttolerance="10"
   gridtolerance="10"
   guidetolerance="10"
   inkscape:pageopacity="0"
   inkscape:pageshadow="2"
   inkscape:window-width="1600"
   inkscape:window-height="837"
   id="namedview9"
   showgrid="false"
   inkscape:zoom="0.60762102"
   inkscape:cx="54.074656"
   inkscape:cy="343.84966"
   inkscape:window-x="-8"
   inkscape:window-y="-8"
   inkscape:window-maximized="1"
   inkscape:current-layer="Calque_1" />
<path
   d="m 492.6,465.8 h -14.2 c -26,0.1 -50.2,-4.7 -71.6,-13 5.8,-7.6 11,-15.6 15.5,-24 12.7,-23.7 19.9,-50.7 20,-78.8 0,-28.2 -7.4,-55.1 -20,-78.8 -4.5,-8.4 -9.7,-16.5 -15.5,-24.1 21.4,-8.1 45.8,-13 71.6,-13 h 14.2 v 38 h 78.3 V 155.8 h -92.5 c -50,0 -96.9,12.8 -135.5,35.4 C 304,168.7 257.2,155.9 207.1,155.8 h -92.4 v 212.6 h 78.2 V 234.2 h 14.2 c 26.1,0 50.4,4.8 71.7,13 -5.8,7.6 -11,15.7 -15.5,24.1 -12.7,23.7 -20.1,50.6 -20.1,78.8 0.1,28.1 7.3,55.1 20.1,78.8 4.5,8.4 9.7,16.4 15.5,24 -21.4,8.2 -45.7,13 -71.7,13 h -14.2 v -51.7 h -78.2 v 130 h 92.4 c 46.9,0 90.8,-11.2 128.1,-31.2 2.6,-1.3 5.1,-2.8 7.7,-4.2 2.4,1.5 5,2.9 7.6,4.2 37.2,19.9 81.1,31.2 127.9,31.2 h 92.5 V 414.7 H 492.6 Z M 353.2,391.9 c -2.9,5.3 -6.4,10.6 -10.4,15.8 -4.1,-5.2 -7.7,-10.5 -10.5,-15.8 -7.1,-13.4 -10.8,-27.2 -10.8,-41.9 0,-14.7 3.7,-28.5 10.8,-41.9 2.8,-5.3 6.4,-10.6 10.5,-15.8 4,5.2 7.5,10.5 10.4,15.8 7.1,13.4 10.8,27.2 10.7,41.9 0,14.7 -3.5,28.5 -10.7,41.9 z"
   id="path2"
   style="fill:#000000"
   inkscape:connector-curvature="0"
   inkscape:export-filename="G:\Users\suitedoalex\sites\dc-logo-4.png"
   inkscape:export-xdpi="81.597961"
   inkscape:export-ydpi="81.597961" />
<style
   type="text/css"
   id="style4">
	.st0{fill:#ffffff;}
</style>
<polygon
   class="st0"
   points="416.9,213.1 440.7,237.8 436.2,203.8 470.4,200.6 440.9,182.9 459.7,154.2 427.7,166.2 416.9,133.6 406.2,166.2 374,154.2 392.8,182.9 363.5,200.6 397.6,203.8 393.1,237.8 "
   id="polygon6"
   style="fill:#000000"
   transform="translate(114.9,156.2)"
   inkscape:export-filename="G:\Users\suitedoalex\sites\dc-logo-4.png"
   inkscape:export-xdpi="81.597961"
   inkscape:export-ydpi="81.597961" />
</svg>